<svg width="512" height="512" viewBox="0 0 512 512" fill="none" xmlns="http://www.w3.org/2000/svg">
<circle cx="256" cy="256" r="170" transform="rotate(180 256 256)" fill="url(#paint0_linear_9_2)"/>
<path d="M171 171C137.377 171 104.509 180.97 76.5531 199.65C48.5967 218.33 26.8074 244.88 13.9405 275.944C1.07358 307.007 -2.29299 341.189 4.2665 374.165C10.826 407.142 27.0169 437.433 50.7918 461.208C74.5668 484.983 104.858 501.174 137.835 507.733C170.811 514.293 204.993 510.926 236.056 498.06C267.12 485.193 293.67 463.403 312.35 435.447C331.03 407.491 341 374.623 341 341L171 341L171 171Z" fill="url(#paint1_linear_9_2)"/>
<path d="M171 171C171 137.377 180.97 104.509 199.65 76.5531C218.33 48.5967 244.88 26.8074 275.944 13.9405C307.007 1.07358 341.189 -2.29299 374.165 4.2665C407.142 10.826 437.433 27.0169 461.208 50.7918C484.983 74.5668 501.174 104.858 507.733 137.835C514.293 170.811 510.926 204.993 498.06 236.056C485.193 267.12 463.403 293.67 435.447 312.35C407.491 331.03 374.623 341 341 341L341 171L171 171Z" fill="url(#paint2_linear_9_2)"/>
<path d="M171 341C137.377 341 104.509 331.03 76.5531 312.35C48.5967 293.67 26.8074 267.12 13.9405 236.056C1.07358 204.993 -2.29299 170.811 4.2665 137.835C10.826 104.858 27.0169 74.5668 50.7918 50.7918C74.5668 27.0169 104.858 10.826 137.835 4.2665C170.811 -2.29299 204.993 1.07358 236.056 13.9405C267.12 26.8074 293.67 48.5967 312.35 76.5531C331.03 104.509 341 137.377 341 171L171 171L171 341Z" fill="url(#paint3_linear_9_2)"/>
<path d="M171 341C171 374.623 180.97 407.491 199.65 435.447C218.33 463.403 244.88 485.193 275.944 498.06C307.007 510.926 341.189 514.293 374.165 507.733C407.142 501.174 437.433 484.983 461.208 461.208C484.983 437.433 501.174 407.142 507.733 374.165C514.293 341.189 510.926 307.007 498.06 275.944C485.193 244.88 463.403 218.33 435.447 199.65C407.491 180.97 374.623 171 341 171L341 341L171 341Z" fill="url(#paint4_linear_9_2)"/>
<defs>
<linearGradient id="paint0_linear_9_2" x1="86" y1="86" x2="426" y2="426" gradientUnits="userSpaceOnUse">
<stop stop-color="#A5B4FC"/>
<stop offset="1" stop-color="#7C3AED"/>
</linearGradient>
<linearGradient id="paint1_linear_9_2" x1="1" y1="511" x2="341" y2="171" gradientUnits="userSpaceOnUse">
<stop stop-color="#86EFAC"/>
<stop offset="1" stop-color="#059669"/>
</linearGradient>
<linearGradient id="paint2_linear_9_2" x1="511" y1="1" x2="171" y2="341" gradientUnits="userSpaceOnUse">
<stop stop-color="#FCD34D"/>
<stop offset="1" stop-color="#CA8A04"/>
</linearGradient>
<linearGradient id="paint3_linear_9_2" x1="341" y1="341" x2="1" y2="1" gradientUnits="userSpaceOnUse">
<stop stop-color="#FDA4AF"/>
<stop offset="1" stop-color="#DC2626"/>
</linearGradient>
<linearGradient id="paint4_linear_9_2" x1="511" y1="511" x2="171" y2="171" gradientUnits="userSpaceOnUse">
<stop stop-color="#7DD3FC"/>
<stop offset="1" stop-color="#2563EB"/>
</linearGradient>
</defs>
</svg>
