<svg width="640" height="640" viewBox="0 0 640 640" fill="none" xmlns="http://www.w3.org/2000/svg">
<path fill-rule="evenodd" clip-rule="evenodd" d="M273.487 177L320.253 258L367.018 177L495.104 398.851H401.253L448.104 480H192.104L238.955 398.851H145.401L273.487 177ZM145.401 398.851H17.2527L128.104 590.851L192.104 480H98.5501L145.401 398.851ZM448.104 480H541.955L495.104 398.851H622.955L512.104 590.851L448.104 480ZM273.487 177L209.401 66H431.104L367.018 177L320.253 96L273.487 177Z" fill="url(#paint0_linear_26_2)"/>
<path fill-rule="evenodd" clip-rule="evenodd" d="M273.487 177L320.253 258L367.018 177L495.104 398.851H401.253L448.104 480H192.104L238.955 398.851H145.401L273.487 177ZM145.401 398.851H17.2527L128.104 590.851L192.104 480H98.5501L145.401 398.851ZM448.104 480H541.955L495.104 398.851H622.955L512.104 590.851L448.104 480ZM273.487 177L209.401 66H431.104L367.018 177L320.253 96L273.487 177Z" fill="url(#paint1_linear_26_2)" style="mix-blend-mode:hard-light"/>
<path fill-rule="evenodd" clip-rule="evenodd" d="M273.487 177L320.253 258L367.018 177L495.104 398.851H401.253L448.104 480H192.104L238.955 398.851H145.401L273.487 177ZM145.401 398.851H17.2527L128.104 590.851L192.104 480H98.5501L145.401 398.851ZM448.104 480H541.955L495.104 398.851H622.955L512.104 590.851L448.104 480ZM273.487 177L209.401 66H431.104L367.018 177L320.253 96L273.487 177Z" fill="url(#paint2_linear_26_2)" style="mix-blend-mode:hard-light"/>
<path fill-rule="evenodd" clip-rule="evenodd" d="M273.487 177L320.253 258L367.018 177L495.104 398.851H401.253L448.104 480H192.104L238.955 398.851H145.401L273.487 177ZM145.401 398.851H17.2527L128.104 590.851L192.104 480H98.5501L145.401 398.851ZM448.104 480H541.955L495.104 398.851H622.955L512.104 590.851L448.104 480ZM273.487 177L209.401 66H431.104L367.018 177L320.253 96L273.487 177Z" fill="url(#paint3_linear_26_2)" style="mix-blend-mode:luminosity"/>
<path fill-rule="evenodd" clip-rule="evenodd" d="M273.487 177L320.253 258L367.018 177L495.104 398.851H401.253L448.104 480H192.104L238.955 398.851H145.401L273.487 177ZM145.401 398.851H17.2527L128.104 590.851L192.104 480H98.5501L145.401 398.851ZM448.104 480H541.955L495.104 398.851H622.955L512.104 590.851L448.104 480ZM273.487 177L209.401 66H431.104L367.018 177L320.253 96L273.487 177Z" fill="url(#paint4_linear_26_2)" style="mix-blend-mode:saturation"/>
<defs>
<linearGradient id="paint0_linear_26_2" x1="611" y1="575" x2="29" y2="66" gradientUnits="userSpaceOnUse">
<stop stop-color="#A1A1AA"/>
<stop offset="1" stop-color="#D4D4D8"/>
</linearGradient>
<linearGradient id="paint1_linear_26_2" x1="209" y1="66" x2="431" y2="66" gradientUnits="userSpaceOnUse">
<stop stop-color="#F43F5E"/>
<stop offset="1" stop-color="#EF4444"/>
</linearGradient>
<linearGradient id="paint2_linear_26_2" x1="623" y1="399" x2="512" y2="591" gradientUnits="userSpaceOnUse">
<stop stop-color="#22D3EE"/>
<stop offset="1" stop-color="#3B82F6"/>
</linearGradient>
<linearGradient id="paint3_linear_26_2" x1="17" y1="399" x2="128" y2="591" gradientUnits="userSpaceOnUse">
<stop stop-color="#A3E635"/>
<stop offset="1" stop-color="#10B981"/>
</linearGradient>
<linearGradient id="paint4_linear_26_2" x1="320" y1="258" x2="320" y2="480" gradientUnits="userSpaceOnUse">
<stop stop-color="#FB923C"/>
<stop offset="1" stop-color="#FACC15"/>
</linearGradient>
</defs>
</svg>
