<svg width="512" height="512" viewBox="0 0 512 512" fill="none" xmlns="http://www.w3.org/2000/svg">
<g clip-path="url(#clip0_17_2)">
<path fill-rule="evenodd" clip-rule="evenodd" d="M178.404 246.4C176.385 249.897 175.375 251.646 174.98 253.505C174.631 255.15 174.631 256.85 174.98 258.495C175.375 260.354 176.385 262.103 178.404 265.6L239.372 371.2C244.829 380.651 247.557 385.377 251.119 386.963C254.226 388.346 257.774 388.346 260.881 386.963C264.443 385.377 267.171 380.651 272.628 371.2L333.596 265.6C335.615 262.103 336.625 260.354 337.02 258.495C337.369 256.85 337.369 255.15 337.02 253.505C336.625 251.646 335.615 249.897 333.596 246.4L272.628 140.8C267.171 131.349 264.443 126.623 260.881 125.037C257.774 123.654 254.226 123.654 251.119 125.037C247.557 126.623 244.829 131.349 239.372 140.8L178.404 246.4Z" fill="url(#paint0_linear_17_2)"/>
<path d="M69.6126 465.903C59.0712 468.727 53.8005 470.14 50.1605 468.742C46.9855 467.523 44.4767 465.015 43.2579 461.84C41.8606 458.2 43.2729 452.929 46.0975 442.388L86.2641 292.484C89.0886 281.942 90.5009 276.672 93.531 274.218C96.174 272.078 99.601 271.16 102.96 271.692C106.811 272.301 110.669 276.16 118.386 283.877L228.123 393.614C235.84 401.331 239.699 405.189 240.309 409.04C240.841 412.399 239.922 415.826 237.782 418.469C235.328 421.499 230.058 422.912 219.516 425.736L69.6126 465.903Z" fill="url(#paint1_linear_17_2)"/>
<path d="M465.903 442.387C468.727 452.929 470.139 458.199 468.742 461.839C467.523 465.014 465.015 467.523 461.84 468.742C458.199 470.139 452.929 468.727 442.387 465.902L292.484 425.736C281.942 422.911 276.672 421.499 274.218 418.469C272.078 415.826 271.159 412.399 271.691 409.04C272.301 405.189 276.16 401.33 283.877 393.613L393.614 283.876C401.331 276.16 405.189 272.301 409.04 271.691C412.399 271.159 415.826 272.077 418.469 274.218C421.499 276.671 422.911 281.942 425.736 292.483L465.903 442.387Z" fill="url(#paint2_linear_17_2)"/>
<path d="M442.387 46.0977C452.929 43.2732 458.199 41.8609 461.84 43.2582C465.015 44.477 467.523 46.9858 468.742 50.1608C470.139 53.8008 468.727 59.0715 465.903 69.6129L425.736 219.517C422.911 230.058 421.499 235.329 418.469 237.782C415.826 239.923 412.399 240.841 409.04 240.309C405.189 239.699 401.331 235.84 393.614 228.124L283.877 118.387C276.16 110.67 272.301 106.811 271.691 102.96C271.159 99.6013 272.078 96.1743 274.218 93.5313C276.672 90.5011 281.942 89.0889 292.484 86.2643L442.387 46.0977Z" fill="url(#paint3_linear_17_2)"/>
<path d="M46.0974 69.6125C43.2729 59.0712 41.8606 53.8005 43.2579 50.1605C44.4767 46.9855 46.9854 44.4767 50.1605 43.2579C53.8005 41.8606 59.0712 43.2729 69.6125 46.0975L219.516 86.264C230.058 89.0886 235.328 90.5009 237.782 93.531C239.922 96.174 240.841 99.601 240.309 102.96C239.699 106.811 235.84 110.669 228.123 118.386L118.386 228.123C110.669 235.84 106.811 239.699 102.96 240.309C99.601 240.841 96.174 239.922 93.531 237.782C90.5008 235.328 89.0886 230.058 86.264 219.516L46.0974 69.6125Z" fill="url(#paint4_linear_17_2)"/>
</g>
<defs>
<linearGradient id="paint0_linear_17_2" x1="256" y1="112" x2="256" y2="400" gradientUnits="userSpaceOnUse">
<stop stop-color="#818CF8"/>
<stop offset="1" stop-color="#E879F9"/>
</linearGradient>
<linearGradient id="paint1_linear_17_2" x1="37.4903" y1="293.49" x2="218.51" y2="474.51" gradientUnits="userSpaceOnUse">
<stop stop-color="#22D3EE"/>
<stop offset="1" stop-color="#3B82F6"/>
</linearGradient>
<linearGradient id="paint2_linear_17_2" x1="474.51" y1="293.49" x2="293.49" y2="474.509" gradientUnits="userSpaceOnUse">
<stop stop-color="#A3E635"/>
<stop offset="1" stop-color="#34D399"/>
</linearGradient>
<linearGradient id="paint3_linear_17_2" x1="474.51" y1="37.4906" x2="293.49" y2="218.51" gradientUnits="userSpaceOnUse">
<stop stop-color="#FB923C"/>
<stop offset="1" stop-color="#FACC15"/>
</linearGradient>
<linearGradient id="paint4_linear_17_2" x1="37.4903" y1="37.4903" x2="218.51" y2="218.51" gradientUnits="userSpaceOnUse">
<stop stop-color="#FB7185"/>
<stop offset="1" stop-color="#EF4444"/>
</linearGradient>
<clipPath id="clip0_17_2">
<rect x="512" y="512" width="512" height="512" rx="128" transform="rotate(180 512 512)" fill="white"/>
</clipPath>
</defs>
</svg>
