<?xml version="1.0" encoding="UTF-8"?>
<svg width="24px" height="24px" stroke-width="1.5" viewBox="-3 -3 30 30" fill="none"
    xmlns="http://www.w3.org/2000/svg" color="#71717a">
    <path d="M3 16V8a5 5 0 015-5h8a5 5 0 015 5v8a5 5 0 01-5 5H8a5 5 0 01-5-5z" stroke="#71717a"
        stroke-width="1.5"></path>
    <path d="M16.5 14.5s-1.5 2-4.5 2-4.5-2-4.5-2" stroke="#71717a" stroke-width="1.5"
        stroke-linecap="round" stroke-linejoin="round"></path>
    <path d="M8.5 10a.5.5 0 110-1 .5.5 0 010 1zM15.5 10a.5.5 0 110-1 .5.5 0 010 1z" fill="#71717a"
        stroke="#71717a" stroke-width="1.5" stroke-linecap="round" stroke-linejoin="round"></path>
</svg>