<?xml version="1.0" standalone="no"?>
<!DOCTYPE svg PUBLIC "-//W3C//DTD SVG 20010904//EN"
 "http://www.w3.org/TR/2001/REC-SVG-20010904/DTD/svg10.dtd">
<svg version="1.0" xmlns="http://www.w3.org/2000/svg"
 width="512.000000pt" height="512.000000pt" viewBox="0 0 512.000000 512.000000"
 preserveAspectRatio="xMidYMid meet">
<metadata>
Created by potrace 1.14, written by Peter Selinger 2001-2017
</metadata>
<g transform="translate(0.000000,512.000000) scale(0.100000,-0.100000)"
fill="#000000" stroke="none">
<path d="M1490 5095 c-214 -32 -345 -72 -518 -156 -323 -157 -543 -364 -749
-704 -72 -120 -166 -388 -189 -538 -2 -18 -8 -54 -12 -82 -9 -63 -8 -367 1
-420 4 -22 10 -58 13 -80 22 -142 86 -332 162 -479 l40 -78 -33 -58 c-49 -86
-155 -370 -139 -370 3 0 0 -8 -5 -17 -5 -10 -12 -35 -15 -57 -4 -21 -8 -41
-10 -45 -11 -18 -21 -176 -20 -326 1 -178 18 -299 64 -455 21 -73 96 -265 110
-285 4 -5 22 -37 40 -70 119 -222 344 -457 585 -610 166 -105 421 -202 610
-230 122 -19 175 -23 285 -23 275 1 509 55 744 171 l110 54 47 -28 c107 -63
373 -154 505 -173 21 -3 68 -10 104 -15 69 -10 357 -7 425 4 252 41 493 131
691 260 49 32 91 61 94 64 3 3 23 19 45 35 66 49 237 226 290 301 27 39 52 72
55 75 9 8 86 141 118 205 44 89 99 243 122 341 21 90 24 103 39 214 19 136 6
424 -24 530 -2 8 -7 31 -10 50 -12 69 -79 253 -130 357 l-51 105 37 71 c72
138 137 327 160 466 6 36 13 77 16 91 2 14 6 97 8 185 6 281 -44 518 -161 763
-62 127 -122 225 -202 327 -57 73 -204 222 -261 265 -18 14 -38 30 -44 35 -31
28 -191 127 -262 162 -361 181 -784 229 -1175 132 -86 -21 -295 -95 -316 -111
-7 -5 -37 -21 -68 -36 l-57 -27 -102 50 c-164 81 -336 133 -522 160 -115 16
-336 16 -445 0z"/>
</g>
</svg>
