<?xml version="1.0" standalone="no"?>
<!DOCTYPE svg PUBLIC "-//W3C//DTD SVG 20010904//EN"
 "http://www.w3.org/TR/2001/REC-SVG-20010904/DTD/svg10.dtd">
<svg version="1.0" xmlns="http://www.w3.org/2000/svg"
 width="700.000000pt" height="700.000000pt" viewBox="0 0 700.000000 700.000000"
 preserveAspectRatio="xMidYMid meet">
<metadata>
Created by potrace 1.14, written by Peter Selinger 2001-2017
</metadata>
<g transform="translate(0.000000,700.000000) scale(0.100000,-0.100000)"
fill="#000000" stroke="none">
<path d="M2259 6996 c-2 -2 -36 -7 -74 -10 -39 -4 -80 -8 -92 -10 -11 -3 -38
-7 -59 -11 -223 -35 -535 -155 -748 -287 -276 -171 -533 -428 -704 -705 -139
-223 -246 -501 -287 -748 -4 -22 -9 -51 -11 -64 -16 -82 -23 -229 -19 -381 5
-189 7 -204 36 -355 25 -125 26 -129 38 -168 6 -18 18 -54 26 -82 52 -168 152
-373 257 -529 40 -59 79 -118 87 -130 13 -20 10 -27 -32 -82 -47 -63 -132
-196 -157 -249 -8 -16 -19 -37 -26 -45 -18 -24 -105 -237 -136 -335 -36 -112
-75 -302 -85 -415 -13 -142 -7 -444 11 -555 16 -99 60 -292 76 -330 4 -11 20
-54 35 -95 15 -41 45 -112 66 -156 22 -45 39 -84 39 -88 0 -4 16 -32 35 -62
19 -30 35 -57 35 -59 0 -3 25 -42 56 -88 245 -357 581 -633 964 -790 93 -38
166 -64 220 -79 49 -13 112 -29 130 -33 8 -2 37 -8 63 -14 164 -38 527 -49
712 -21 367 54 699 190 994 408 71 52 95 72 180 150 25 22 42 31 56 27 90 -24
176 -46 196 -50 13 -3 35 -7 49 -10 53 -11 116 -21 205 -30 66 -7 325 -8 390
-1 77 9 204 27 230 33 11 3 38 9 60 13 143 31 337 101 490 178 79 39 255 144
288 172 6 6 37 29 67 53 179 137 336 306 470 507 59 87 189 329 203 375 3 11
20 58 37 105 29 80 73 238 84 305 30 177 38 270 38 404 0 163 -9 260 -38 411
-8 41 -16 84 -18 96 -9 47 -49 174 -83 264 -34 90 -124 282 -144 306 -6 7 8
45 39 105 114 226 189 450 217 649 3 25 8 56 10 70 16 106 23 411 11 480 -3
14 -10 63 -16 110 -110 833 -747 1553 -1570 1774 -97 26 -113 29 -210 46 -178
32 -524 34 -685 5 -16 -3 -55 -10 -85 -16 -30 -6 -66 -12 -80 -15 -110 -20
-389 -126 -522 -198 l-67 -36 -143 69 c-167 80 -354 147 -468 166 -19 3 -51
10 -70 15 -80 20 -206 32 -381 35 -103 2 -188 2 -190 1z"/>
</g>
</svg>
