<?xml version="1.0" standalone="no"?>
<!DOCTYPE svg PUBLIC "-//W3C//DTD SVG 20010904//EN"
 "http://www.w3.org/TR/2001/REC-SVG-20010904/DTD/svg10.dtd">
<svg version="1.0" xmlns="http://www.w3.org/2000/svg"
 width="700.000000pt" height="700.000000pt" viewBox="0 0 700.000000 700.000000"
 preserveAspectRatio="xMidYMid meet">
<g transform="translate(0.000000,700.000000) scale(0.100000,-0.100000)"
fill="#000000" stroke="none">
<path d="M2207 6984 c-1 -1 -38 -5 -82 -9 -89 -7 -105 -9 -218 -30 -703 -131
-1316 -591 -1640 -1231 -97 -190 -181 -435 -211 -612 -3 -15 -8 -43 -12 -62
-16 -88 -30 -276 -28 -390 1 -116 12 -298 19 -310 2 -3 6 -26 10 -50 15 -104
66 -312 95 -385 67 -169 91 -225 133 -308 l50 -98 -46 -87 c-113 -217 -204
-491 -233 -709 -3 -26 -8 -50 -9 -53 -8 -12 -18 -194 -19 -305 0 -144 14 -319
30 -395 3 -14 8 -36 10 -50 2 -14 7 -36 10 -50 3 -14 8 -34 10 -46 2 -11 18
-67 34 -124 237 -795 865 -1395 1677 -1599 43 -11 96 -22 118 -26 22 -3 54 -8
70 -11 183 -33 530 -37 676 -9 13 3 44 8 69 11 85 11 295 66 405 106 61 22
170 69 243 105 l133 65 87 -45 c159 -83 391 -169 542 -201 80 -17 119 -25 155
-30 23 -4 50 -8 61 -10 133 -26 466 -26 634 0 264 40 502 115 729 228 269 136
551 356 716 561 22 27 48 59 58 70 39 43 143 197 196 291 51 90 83 155 139
284 48 111 119 366 137 495 2 11 6 34 9 50 25 147 26 453 2 625 -2 14 -7 48
-11 75 -10 74 -51 239 -84 341 -40 126 -76 213 -139 336 l-54 107 61 123 c78
158 141 327 176 468 12 50 25 110 30 140 3 19 8 48 11 63 16 79 28 235 28 372
0 112 -12 303 -19 315 -2 3 -6 28 -9 56 -9 76 -60 277 -101 394 -137 395 -407
778 -725 1032 -41 33 -84 67 -95 76 -59 48 -218 142 -350 207 -158 78 -297
130 -455 170 -90 23 -114 28 -192 40 -18 3 -44 7 -58 10 -136 24 -506 24 -630
0 -13 -3 -42 -7 -65 -10 -22 -4 -71 -13 -109 -22 -37 -8 -73 -16 -80 -17 -115
-23 -304 -94 -473 -178 l-123 -60 -132 65 c-73 35 -158 74 -188 85 -30 11 -75
28 -99 37 -114 42 -345 91 -521 111 -61 6 -347 13 -353 8z"/>
</g>
</svg>